<?xml version="1.0" encoding="utf-8"?>
<?xml-stylesheet type="text/xsl" href="rss1.xsl"?>
<rss version="2.0" xmlns:atom="http://www.w3.org/2005/Atom" xmlns:content="http://purl.org/rss/1.0/modules/content/" xmlns:dc="http://purl.org/dc/elements/1.1/" xmlns:media="http://search.yahoo.com/mrss/">
<channel>
 <title>Getty</title>
 <link>http://www.gettyimg.com/</link>
 <atom:link href="http://www.gettyimg.com/" rel="self" type="application/rss+xml" />

 
                <item>
                <title><![CDATA[【Albums (lossless)】ALAC - The Beatles - 1 [ALAC 24bit-44.1kHz Apple Music WEB-DL]]]></title>
                <link><![CDATA[https://sharemania.us/threads/the-beatles-1-alac-24bit-44-1khz-apple-music-web-dl.228285/]]></link>
                <description><![CDATA[<article>
<blockquote class="messageText SelectQuoteContainer ugc baseHtml">
<div class="ToggleTriggerAnchor bbCodeSpoilerContainer">
<button type="button" class="button bbCodeSpoilerButton ToggleTrigger Tooltip JsOnly" data-target="> .SpoilerTarget"><span>Spoiler: <span class="SpoilerTitle">Cover</span></span></button>
<div class="SpoilerTarget bbCodeSpoilerText"><img src="https://is1-ssl.mzstatic.com/image/thumb/Music116/v4/f2/98/fb/f298fb48-1e0e-6ad4-4cff-fb824b77f02e/15UMGIM59587.rgb.jpg/1200x1200bb.jpg" class="bbCodeImage LbImage" alt="[​IMG]" data-url="https://is1-ssl.mzstatic.com/image/thumb/Music116/v4/f2/98/fb/f298fb48-1e0e-6ad4-4cff-fb824b77f02e/15UMGIM59587.rgb.jpg/1200x1200bb.jpg" style=""></div>
</div>
<div class="ToggleTriggerAnchor bbCodeSpoilerContainer">
<button type="button" class="button bbCodeSpoilerButton ToggleTrigger Tooltip JsOnly" data-target="> .SpoilerTarget"><span>Spoiler: <span class="SpoilerTitle">File List</span></span></button>
<div class="SpoilerTarget bbCodeSpoilerText">01 Love Me Do.lrc<br>
01 Love Me Do.m4a<br>
02 From Me to You.lrc<br>
02 From Me to You.m4a<br>
03 She Loves You.lrc<br>
03 She Loves You.m4a<br>
04 I Want to Hold Your Hand.lrc<br>
04 I Want to Hold Your Hand.m4a<br>
05 Can't Buy Me Love.lrc<br>
05 Can't Buy Me Love.m4a<br>
06 A Hard Day's Night.lrc<br>
06 A Hard Day's Night.m4a<br>
07 I Feel Fine.lrc<br>
07 I Feel Fine.m4a<br>
08 Eight Days a Week.lrc<br>
08 Eight Days a Week.m4a<br>
09 Ticket to Ride.lrc<br>
09 Ticket to Ride.m4a<br>
10 Help!.lrc<br>
10 Help!.m4a<br>
11 Yesterday.lrc<br>
11 Yesterday.m4a<br>
12 Day Tripper.lrc<br>
12 Day Tripper.m4a<br>
13 We Can Work It Out.lrc<br>
13 We Can Work It Out.m4a<br>
14 Paperback Writer.lrc<br>
14 Paperback Writer.m4a<br>
15 Yellow Submarine.lrc<br>
15 Yellow Submarine.m4a<br>
16 Eleanor Rigby.lrc<br>
16 Eleanor Rigby.m4a<br>
17 Penny Lane.lrc<br>
17 Penny Lane.m4a<br>
18 All You Need Is Love.lrc<br>
18 All You Need Is Love.m4a<br>
19 Hello, Goodbye.lrc<br>
19 Hello, Goodbye.m4a<br>
20 Lady Madonna.lrc<br>
20 Lady Madonna.m4a<br>
21 Hey Jude.lrc<br>
21 Hey Jude.m4a<br>
22 Get Back.lrc<br>
22 Get Back.m4a<br>
23 The Ballad of John and Yoko.lrc<br>
23 The Ballad of John and Yoko.m4a<br>
24 Something.lrc<br>
24 Something.m4a<br>
25 Come Together.lrc<br>
25 Come Together.m4a<br>
26 Let It Be.lrc<br>
26 Let It Be.m4a<br>
27 The Long and Winding Road.lrc<br>
27 The Long and Winding Road.m4a</div>
</div>
<div class="ToggleTriggerAnchor bbCodeSpoilerContainer">
<button type="button" class="button bbCodeSpoilerButton ToggleTrigger Tooltip JsOnly" data-target="> .SpoilerTarget"><span>Spoiler: <span class="SpoilerTitle">Mediainfo (1st track)</span></span></button>
<div class="SpoilerTarget bbCodeSpoilerText">
<div class="bbCodeBlock bbCodeCode">
<div class="type">Code:</div>
<pre>General
Complete name                            : 01 Love Me Do.m4a
Format                                   : MPEG-4
Format profile                           : Apple audio with iTunes info
Codec ID                                 : M4A  (M4A /mp42/isom)
File size                                : 20.1 MiB
Duration                                 : 2 min 20 s
Overall bit rate mode                    : Variable
Overall bit rate                         : 1 205 kb/s
Album                                    : 1
Album/Sorted by                          : 1
Album/Performer                          : The Beatles
Part/Position                            : 1
Part/Total                               : 1
Track name                               : Love Me Do
Track name/Position                      : 1
Track name/Total                         : 27
Compilation                              : Yes
Performer                                : The Beatles
Performer/Sorted by                      : The Beatles
Composer                                 : John Lennon &amp; Paul McCartney
Composer/Sorted by                       : John Lennon &amp; Paul McCartney
Genre                                    : Rock
ContentType                              : Music
Recorded date                            : 1962-10-05 12:00:00 UTC
Encoded date                             : 2022-09-12 22:25:02 UTC
Tagged date                              : 2022-09-12 22:25:02 UTC
Copyright                                : This Compilation ℗ 2015 Calderstone Productions Limited (a division of Universal Music Group) / Apple Corps Ltd.
Cover                                    : Yes
Lyrics                                   : Love, love me do / You know I love you / I'll always be true / So please / Love me do / Whoa, love me do /  / Love, love me do / You know I love you / I'll always be true / So please / Love me do / Whoa, love me do /  / Someone to love / Somebody new / Someone to love / Someone like you /  / Love, love me do / You know I love you / I'll always be true / So please / Love me do / Whoa, love me do /  / Love, love me do / You know I love you / I'll always be true / So please / Love me do /  / Whoa, love me do / Yeah, love me do / Whoa, love me do / Yeah, love me do
Rating                                   : None
GenreID                                  : 21
cmID                                     : 12224
AlbumTitleID                             : 136975
AppleStoreCountry                        : United States
PlayListID                               : 1440833098
AppleStoreCatalogID                      : 1440833334
Title/Sort                               : Love Me Do
Vendor                                   : Universal:isrc:GBUM71505907

Audio
ID                                       : 1
Format                                   : ALAC
Codec ID                                 : alac
Codec ID/Info                            : Apple Lossless Audio Codec
Duration                                 : 2 min 20 s
Duration_LastFrame                       : -75 ms
Bit rate mode                            : Variable
Bit rate                                 : 1 199 kb/s
Nominal bit rate                         : 2 117 kb/s
Channel(s)                               : 2 channels
Sampling rate                            : 44.1 kHz
Bit depth                                : 24 bits
Stream size                              : 20.0 MiB (100%)
Title                                    : Core Media Audio
Encoded date                             : 2022-09-12 22:25:02 UTC
Tagged date                              : 2022-09-12 22:25:02 UTC

</pre>
</div></div>
</div>
<div class="ToggleTriggerAnchor bbCodeSpoilerContainer">
<button type="button" class="button bbCodeSpoilerButton ToggleTrigger Tooltip JsOnly" data-target="> .SpoilerTarget"><span>Spoiler: <span class="SpoilerTitle">Download</span></span></button>
<div class="SpoilerTarget bbCodeSpoilerText">
<div class="bbCodeBlock bbCodeVfcHH HiddenContent">
<div class="attribution type">Hidden Content:</div>
<blockquote>You must reply before you can see the hidden data contained here.</blockquote>
</div></div>
</div>
<div class="messageTextEndMarker">&nbsp;</div>
</blockquote>
</article>]]></description>
                <author><![CDATA[glomatico]]></author>
                </item>

                
                <item>
                <title><![CDATA[【Apple Music】WEB-RiP - Olivia Rodrigo - get him back! |Apple Music 4K|]]></title>
                <link><![CDATA[https://sharemania.us/threads/olivia-rodrigo-get-him-back-apple-music-4k.228284/]]></link>
                <description><![CDATA[<article>
<blockquote class="messageText SelectQuoteContainer ugc baseHtml">
<div style="text-align: center"><img src="https://i.imgur.com/XsaChPN.gif" class="bbCodeImage LbImage" alt="[​IMG]" data-url="https://i.imgur.com/XsaChPN.gif" style=""><br>
<br>
​</div>
<div class="ToggleTriggerAnchor bbCodeSpoilerContainer">
<button type="button" class="button bbCodeSpoilerButton ToggleTrigger Tooltip JsOnly" data-target="> .SpoilerTarget"><span>Spoiler: <span class="SpoilerTitle">Apple Music</span></span></button>
<div class="SpoilerTarget bbCodeSpoilerText">
<div class="bbCodeBlock bbCodeCode">
<div class="type">Code:</div>
<pre>Format                                   : Matroska
Format version                           : Version 4
File size                                : 481 MiB
Duration                                 : 3 min 29 s
Overall bit rate                         : 19.3 Mb/s
Writing application                      : mkvmerge v71.1.0 ('Fortitude') 64-bit
Writing library                          : libebml v1.4.4 + libmatroska v1.7.1

Video
ID                                       : 1
Format                                   : HEVC
Format/Info                              : High Efficiency Video Coding
Format profile                           : Main 10@L5@High
Codec ID                                 : V_MPEGH/ISO/HEVC
Duration                                 : 3 min 20 s
Bit rate                                 : 19.8 Mb/s
Width                                    : 3 840 pixels
Height                                   : 2 160 pixels
Display aspect ratio                     : 16:9
Frame rate mode                          : Constant
Frame rate                               : 23.976 (23976/1000) FPS
Color space                              : YUV
Chroma subsampling                       : 4:2:0
Bit depth                                : 10 bits
Bits/(Pixel*Frame)                       : 0.100
Stream size                              : 474 MiB (99%)
Default                                  : Yes
Forced                                   : No
Color range                              : Limited
Color primaries                          : BT.709
Transfer characteristics                 : BT.709
Matrix coefficients                      : BT.709

Audio
ID                                       : 2
Format                                   : AAC LC
Format/Info                              : Advanced Audio Codec Low Complexity
Codec ID                                 : A_AAC-2
Duration                                 : 3 min 29 s
Bit rate                                 : 278 kb/s
Channel(s)                               : 2 channels
Channel layout                           : L R
Sampling rate                            : 48.0 kHz
Frame rate                               : 46.875 FPS (1024 SPF)
Compression mode                         : Lossy
Stream size                              : 6.94 MiB (1%)
Default                                  : Yes
Forced                                   : No
</pre>
</div><div style="text-align: center">​</div></div>
</div><div style="text-align: center"><br>
<div class="bbCodeBlock bbCodeVfcHH HiddenContent">
<div class="attribution type">Hidden Content:</div>
<blockquote>You must reply before you can see the hidden data contained here.</blockquote>
</div></div>
<div class="messageTextEndMarker">&nbsp;</div>
</blockquote>
</article>]]></description>
                <author><![CDATA[fstambuk]]></author>
                </item>

                </channel></rss>